<mxfile host="app.diagrams.net" modified="2024-06-01T13:36:19.085Z" agent="Mozilla/5.0 (Windows NT 10.0; Win64; x64) AppleWebKit/537.36 (KHTML, like Gecko) Chrome/125.0.0.0 Safari/537.36" version="24.4.13" etag="rU5NbIbuvzgpoD4X6p5Q" type="github">
  <diagram id="dHnApIYt_14NYh9UptsX" name="Page-1">
    <mxGraphModel dx="1434" dy="820" grid="1" gridSize="10" guides="1" tooltips="1" connect="1" arrows="1" fold="1" page="1" pageScale="1" pageWidth="850" pageHeight="1100" math="0" shadow="0">
      <root>
        <mxCell id="0" />
        <mxCell id="1" parent="0" />
        <UserObject label="&lt;pre&gt;     ┌────┐                   ┌───────────────┐                 ┌───────┐                     ┌────────┐&#xa;     │User│                   │Web Application│                 │Backend│                     │Database│&#xa;     └─┬──┘                   └───────┬───────┘                 └───┬───┘                     └───┬────┘&#xa;       │        Open Login Page       │                             │                             │     &#xa;       │ ─────────────────────────────&gt;                             │                             │     &#xa;       │                              │                             │                             │     &#xa;       │       Enter Credentials      │                             │                             │     &#xa;       │ ─────────────────────────────&gt;                             │                             │     &#xa;       │                              │                             │                             │     &#xa;       │       Submit Login Form      │                             │                             │     &#xa;       │ ─────────────────────────────&gt;                             │                             │     &#xa;       │                              │                             │                             │     &#xa;       │                              │      Authenticate User      │                             │     &#xa;       │                              │ ────────────────────────────&gt;                             │     &#xa;       │                              │                             │                             │     &#xa;       │                              │                             │   Verify User Credentials   │     &#xa;       │                              │                             │ ────────────────────────────&gt;     &#xa;       │                              │                             │                             │     &#xa;       │                              │                             │ Return Authentication Status│     &#xa;       │                              │                             │ &lt;────────────────────────────     &#xa;       │                              │                             │                             │     &#xa;       │                              │ Return Authentication Result│                             │     &#xa;       │                              │ &lt;────────────────────────────                             │     &#xa;       │                              │                             │                             │     &#xa;       │ Show Login Success or Failure│                             │                             │     &#xa;       │ &lt;─────────────────────────────                             │                             │     &#xa;     ┌─┴──┐                   ┌───────┴───────┐                 ┌───┴───┐                     ┌───┴────┐&#xa;     │User│                   │Web Application│                 │Backend│                     │Database│&#xa;     └────┘                   └───────────────┘                 └───────┘                     └────────┘&#xa;&lt;/pre&gt;" plantUmlData="{&quot;data&quot;:&quot;@startuml\nUser -&gt; \&quot;Web Application\&quot;: Open Login Page\nUser -&gt; \&quot;Web Application\&quot;: Enter Credentials\nUser -&gt; \&quot;Web Application\&quot;: Submit Login Form\n\&quot;Web Application\&quot; -&gt; Backend: Authenticate User\nBackend -&gt; Database: Verify User Credentials\nDatabase -&gt; Backend: Return Authentication Status\nBackend -&gt; \&quot;Web Application\&quot;: Return Authentication Result\n\&quot;Web Application\&quot; -&gt; User: Show Login Success or Failure\n\n@enduml&quot;,&quot;format&quot;:&quot;txt&quot;}" id="_8xiDHRHFQi5_hhFdAhL-2">
          <mxCell style="text;html=1;align=left;verticalAlign=top;" vertex="1" parent="1">
            <mxGeometry x="80" y="70" width="710" height="450" as="geometry" />
          </mxCell>
        </UserObject>
      </root>
    </mxGraphModel>
  </diagram>
</mxfile>
